<mxfile host="app.diagrams.net" agent="Mozilla/5.0 (X11; Linux x86_64) AppleWebKit/537.36 (KHTML, like Gecko) Chrome/133.0.0.0 Safari/537.36" version="26.2.14">
  <diagram name="Página-1" id="PyHmtL--rKT9TVsIyxGT">
    <mxGraphModel dx="1117" dy="532" grid="1" gridSize="10" guides="1" tooltips="1" connect="1" arrows="1" fold="1" page="1" pageScale="1" pageWidth="827" pageHeight="1169" math="0" shadow="0">
      <root>
        <mxCell id="0" />
        <mxCell id="1" parent="0" />
        <mxCell id="lYyEjlizKKuH8gvevEbR-13" value="&lt;i&gt;Pessoa&lt;/i&gt;" style="swimlane;fontStyle=1;align=center;verticalAlign=top;childLayout=stackLayout;horizontal=1;startSize=26;horizontalStack=0;resizeParent=1;resizeParentMax=0;resizeLast=0;collapsible=1;marginBottom=0;whiteSpace=wrap;html=1;" parent="1" vertex="1">
          <mxGeometry x="140" y="20" width="160" height="144" as="geometry" />
        </mxCell>
        <mxCell id="lYyEjlizKKuH8gvevEbR-14" value="- nome: str&lt;div&gt;- telefone: str&lt;/div&gt;&lt;div&gt;- email: str&lt;/div&gt;&lt;div&gt;- endereco: str&lt;/div&gt;&lt;div&gt;- cpf: int&lt;/div&gt;" style="text;strokeColor=none;fillColor=none;align=left;verticalAlign=top;spacingLeft=4;spacingRight=4;overflow=hidden;rotatable=0;points=[[0,0.5],[1,0.5]];portConstraint=eastwest;whiteSpace=wrap;html=1;" parent="lYyEjlizKKuH8gvevEbR-13" vertex="1">
          <mxGeometry y="26" width="160" height="84" as="geometry" />
        </mxCell>
        <mxCell id="lYyEjlizKKuH8gvevEbR-15" value="" style="line;strokeWidth=1;fillColor=none;align=left;verticalAlign=middle;spacingTop=-1;spacingLeft=3;spacingRight=3;rotatable=0;labelPosition=right;points=[];portConstraint=eastwest;strokeColor=inherit;" parent="lYyEjlizKKuH8gvevEbR-13" vertex="1">
          <mxGeometry y="110" width="160" height="8" as="geometry" />
        </mxCell>
        <mxCell id="lYyEjlizKKuH8gvevEbR-16" value="+ retorna_dados(): dict" style="text;strokeColor=none;fillColor=none;align=left;verticalAlign=top;spacingLeft=4;spacingRight=4;overflow=hidden;rotatable=0;points=[[0,0.5],[1,0.5]];portConstraint=eastwest;whiteSpace=wrap;html=1;" parent="lYyEjlizKKuH8gvevEbR-13" vertex="1">
          <mxGeometry y="118" width="160" height="26" as="geometry" />
        </mxCell>
        <mxCell id="lYyEjlizKKuH8gvevEbR-17" value="Cliente" style="swimlane;fontStyle=1;align=center;verticalAlign=top;childLayout=stackLayout;horizontal=1;startSize=26;horizontalStack=0;resizeParent=1;resizeParentMax=0;resizeLast=0;collapsible=1;marginBottom=0;whiteSpace=wrap;html=1;" parent="1" vertex="1">
          <mxGeometry x="20" y="220" width="200" height="120" as="geometry" />
        </mxCell>
        <mxCell id="lYyEjlizKKuH8gvevEbR-18" value="- data_cadastro: date&lt;div&gt;- historico_compras: list&lt;/div&gt;" style="text;strokeColor=none;fillColor=none;align=left;verticalAlign=top;spacingLeft=4;spacingRight=4;overflow=hidden;rotatable=0;points=[[0,0.5],[1,0.5]];portConstraint=eastwest;whiteSpace=wrap;html=1;" parent="lYyEjlizKKuH8gvevEbR-17" vertex="1">
          <mxGeometry y="26" width="200" height="44" as="geometry" />
        </mxCell>
        <mxCell id="lYyEjlizKKuH8gvevEbR-19" value="" style="line;strokeWidth=1;fillColor=none;align=left;verticalAlign=middle;spacingTop=-1;spacingLeft=3;spacingRight=3;rotatable=0;labelPosition=right;points=[];portConstraint=eastwest;strokeColor=inherit;" parent="lYyEjlizKKuH8gvevEbR-17" vertex="1">
          <mxGeometry y="70" width="200" height="8" as="geometry" />
        </mxCell>
        <mxCell id="lYyEjlizKKuH8gvevEbR-20" value="+ retorna_dados(): dict&lt;div&gt;+ retorna_historico_compras(): l&lt;span style=&quot;background-color: transparent; color: light-dark(rgb(0, 0, 0), rgb(255, 255, 255));&quot;&gt;ist&lt;/span&gt;&lt;/div&gt;" style="text;strokeColor=none;fillColor=none;align=left;verticalAlign=top;spacingLeft=4;spacingRight=4;overflow=hidden;rotatable=0;points=[[0,0.5],[1,0.5]];portConstraint=eastwest;whiteSpace=wrap;html=1;" parent="lYyEjlizKKuH8gvevEbR-17" vertex="1">
          <mxGeometry y="78" width="200" height="42" as="geometry" />
        </mxCell>
        <mxCell id="lYyEjlizKKuH8gvevEbR-21" value="Funcionário" style="swimlane;fontStyle=1;align=center;verticalAlign=top;childLayout=stackLayout;horizontal=1;startSize=26;horizontalStack=0;resizeParent=1;resizeParentMax=0;resizeLast=0;collapsible=1;marginBottom=0;whiteSpace=wrap;html=1;" parent="1" vertex="1">
          <mxGeometry x="330" y="180" width="240" height="200" as="geometry" />
        </mxCell>
        <mxCell id="lYyEjlizKKuH8gvevEbR-22" value="- cargo: Cargo&lt;div&gt;- contratacao: date&lt;/div&gt;&lt;div&gt;- historico_vendas: list&lt;/div&gt;" style="text;strokeColor=none;fillColor=none;align=left;verticalAlign=top;spacingLeft=4;spacingRight=4;overflow=hidden;rotatable=0;points=[[0,0.5],[1,0.5]];portConstraint=eastwest;whiteSpace=wrap;html=1;" parent="lYyEjlizKKuH8gvevEbR-21" vertex="1">
          <mxGeometry y="26" width="240" height="54" as="geometry" />
        </mxCell>
        <mxCell id="lYyEjlizKKuH8gvevEbR-23" value="" style="line;strokeWidth=1;fillColor=none;align=left;verticalAlign=middle;spacingTop=-1;spacingLeft=3;spacingRight=3;rotatable=0;labelPosition=right;points=[];portConstraint=eastwest;strokeColor=inherit;" parent="lYyEjlizKKuH8gvevEbR-21" vertex="1">
          <mxGeometry y="80" width="240" height="8" as="geometry" />
        </mxCell>
        <mxCell id="lYyEjlizKKuH8gvevEbR-24" value="+ retorna_dados(): dict&lt;div&gt;+ retorna_historico_vendas(): list&lt;br&gt;&lt;div&gt;+ cadastra_items(dados): Item&amp;nbsp;&lt;br&gt;&lt;div&gt;+ realiza_movimentacao(item, local, destino, quantidade): Movimentacao&lt;/div&gt;&lt;div&gt;+ cria_cliente(dados): Cliente&lt;/div&gt;&lt;div&gt;+ edita_cliente(cliente, dados): bool&lt;/div&gt;&lt;/div&gt;&lt;/div&gt;" style="text;strokeColor=none;fillColor=none;align=left;verticalAlign=top;spacingLeft=4;spacingRight=4;overflow=hidden;rotatable=0;points=[[0,0.5],[1,0.5]];portConstraint=eastwest;whiteSpace=wrap;html=1;" parent="lYyEjlizKKuH8gvevEbR-21" vertex="1">
          <mxGeometry y="88" width="240" height="112" as="geometry" />
        </mxCell>
        <mxCell id="lYyEjlizKKuH8gvevEbR-29" value="Cargo" style="swimlane;fontStyle=0;childLayout=stackLayout;horizontal=1;startSize=26;fillColor=none;horizontalStack=0;resizeParent=1;resizeParentMax=0;resizeLast=0;collapsible=1;marginBottom=0;whiteSpace=wrap;html=1;" parent="1" vertex="1">
          <mxGeometry x="440" y="30" width="140" height="70" as="geometry" />
        </mxCell>
        <mxCell id="lYyEjlizKKuH8gvevEbR-30" value="- função: str&lt;div&gt;- salario: int&lt;/div&gt;" style="text;strokeColor=none;fillColor=none;align=left;verticalAlign=top;spacingLeft=4;spacingRight=4;overflow=hidden;rotatable=0;points=[[0,0.5],[1,0.5]];portConstraint=eastwest;whiteSpace=wrap;html=1;" parent="lYyEjlizKKuH8gvevEbR-29" vertex="1">
          <mxGeometry y="26" width="140" height="44" as="geometry" />
        </mxCell>
        <mxCell id="lYyEjlizKKuH8gvevEbR-38" value="LocalArmazenamento" style="swimlane;fontStyle=1;align=center;verticalAlign=top;childLayout=stackLayout;horizontal=1;startSize=26;horizontalStack=0;resizeParent=1;resizeParentMax=0;resizeLast=0;collapsible=1;marginBottom=0;whiteSpace=wrap;html=1;" parent="1" vertex="1">
          <mxGeometry x="850" y="680" width="210" height="170" as="geometry" />
        </mxCell>
        <mxCell id="lYyEjlizKKuH8gvevEbR-39" value="- nome: str&lt;div&gt;- descricao: str&lt;/div&gt;&lt;div&gt;- capacidade: int&lt;/div&gt;" style="text;strokeColor=none;fillColor=none;align=left;verticalAlign=top;spacingLeft=4;spacingRight=4;overflow=hidden;rotatable=0;points=[[0,0.5],[1,0.5]];portConstraint=eastwest;whiteSpace=wrap;html=1;" parent="lYyEjlizKKuH8gvevEbR-38" vertex="1">
          <mxGeometry y="26" width="210" height="54" as="geometry" />
        </mxCell>
        <mxCell id="lYyEjlizKKuH8gvevEbR-40" value="" style="line;strokeWidth=1;fillColor=none;align=left;verticalAlign=middle;spacingTop=-1;spacingLeft=3;spacingRight=3;rotatable=0;labelPosition=right;points=[];portConstraint=eastwest;strokeColor=inherit;" parent="lYyEjlizKKuH8gvevEbR-38" vertex="1">
          <mxGeometry y="80" width="210" height="8" as="geometry" />
        </mxCell>
        <mxCell id="lYyEjlizKKuH8gvevEbR-41" value="+ retorna_item(): list&lt;div&gt;+ adiciona_item(item, quantidade): bool&lt;/div&gt;&lt;div&gt;+ remove_item(item, quantidade): bool&lt;/div&gt;" style="text;strokeColor=none;fillColor=none;align=left;verticalAlign=top;spacingLeft=4;spacingRight=4;overflow=hidden;rotatable=0;points=[[0,0.5],[1,0.5]];portConstraint=eastwest;whiteSpace=wrap;html=1;" parent="lYyEjlizKKuH8gvevEbR-38" vertex="1">
          <mxGeometry y="88" width="210" height="82" as="geometry" />
        </mxCell>
        <mxCell id="lYyEjlizKKuH8gvevEbR-42" value="Item" style="swimlane;fontStyle=1;align=center;verticalAlign=top;childLayout=stackLayout;horizontal=1;startSize=26;horizontalStack=0;resizeParent=1;resizeParentMax=0;resizeLast=0;collapsible=1;marginBottom=0;whiteSpace=wrap;html=1;" parent="1" vertex="1">
          <mxGeometry x="630" y="680" width="170" height="212" as="geometry" />
        </mxCell>
        <mxCell id="lYyEjlizKKuH8gvevEbR-43" value="- nome: str&lt;div&gt;- descrição: str&lt;/div&gt;&lt;div&gt;- valor_entrada: float&lt;/div&gt;&lt;div&gt;- margem_lucro: float&lt;/div&gt;&lt;div&gt;- quantidade_disponivel: int&lt;/div&gt;&lt;div&gt;- local: LocalArmazenamento&lt;/div&gt;&lt;div&gt;- quantidade: int&lt;/div&gt;" style="text;strokeColor=none;fillColor=none;align=left;verticalAlign=top;spacingLeft=4;spacingRight=4;overflow=hidden;rotatable=0;points=[[0,0.5],[1,0.5]];portConstraint=eastwest;whiteSpace=wrap;html=1;" parent="lYyEjlizKKuH8gvevEbR-42" vertex="1">
          <mxGeometry y="26" width="170" height="104" as="geometry" />
        </mxCell>
        <mxCell id="lYyEjlizKKuH8gvevEbR-44" value="" style="line;strokeWidth=1;fillColor=none;align=left;verticalAlign=middle;spacingTop=-1;spacingLeft=3;spacingRight=3;rotatable=0;labelPosition=right;points=[];portConstraint=eastwest;strokeColor=inherit;" parent="lYyEjlizKKuH8gvevEbR-42" vertex="1">
          <mxGeometry y="130" width="170" height="10" as="geometry" />
        </mxCell>
        <mxCell id="lYyEjlizKKuH8gvevEbR-45" value="+ valor_esperado_venda(): float&lt;div&gt;+ atualiza_quantidade(): bool&lt;/div&gt;" style="text;strokeColor=none;fillColor=none;align=left;verticalAlign=top;spacingLeft=4;spacingRight=4;overflow=hidden;rotatable=0;points=[[0,0.5],[1,0.5]];portConstraint=eastwest;whiteSpace=wrap;html=1;" parent="lYyEjlizKKuH8gvevEbR-42" vertex="1">
          <mxGeometry y="140" width="170" height="72" as="geometry" />
        </mxCell>
        <mxCell id="lYyEjlizKKuH8gvevEbR-46" value="Movimentacao" style="swimlane;fontStyle=1;align=center;verticalAlign=top;childLayout=stackLayout;horizontal=1;startSize=26;horizontalStack=0;resizeParent=1;resizeParentMax=0;resizeLast=0;collapsible=1;marginBottom=0;whiteSpace=wrap;html=1;" parent="1" vertex="1">
          <mxGeometry x="240" y="450" width="160" height="150" as="geometry" />
        </mxCell>
        <mxCell id="lYyEjlizKKuH8gvevEbR-47" value="- data: datetime&lt;div&gt;&lt;span style=&quot;background-color: transparent; color: light-dark(rgb(0, 0, 0), rgb(255, 255, 255));&quot;&gt;- quantidade: int&lt;/span&gt;&lt;/div&gt;" style="text;strokeColor=none;fillColor=none;align=left;verticalAlign=top;spacingLeft=4;spacingRight=4;overflow=hidden;rotatable=0;points=[[0,0.5],[1,0.5]];portConstraint=eastwest;whiteSpace=wrap;html=1;" parent="lYyEjlizKKuH8gvevEbR-46" vertex="1">
          <mxGeometry y="26" width="160" height="44" as="geometry" />
        </mxCell>
        <mxCell id="lYyEjlizKKuH8gvevEbR-48" value="" style="line;strokeWidth=1;fillColor=none;align=left;verticalAlign=middle;spacingTop=-1;spacingLeft=3;spacingRight=3;rotatable=0;labelPosition=right;points=[];portConstraint=eastwest;strokeColor=inherit;" parent="lYyEjlizKKuH8gvevEbR-46" vertex="1">
          <mxGeometry y="70" width="160" height="8" as="geometry" />
        </mxCell>
        <mxCell id="lYyEjlizKKuH8gvevEbR-49" value="&lt;div&gt;+ registra_movimentacao(): bool&lt;/div&gt;&lt;div&gt;+ retorna_movimentacao(): dict&lt;/div&gt;" style="text;strokeColor=none;fillColor=none;align=left;verticalAlign=top;spacingLeft=4;spacingRight=4;overflow=hidden;rotatable=0;points=[[0,0.5],[1,0.5]];portConstraint=eastwest;whiteSpace=wrap;html=1;" parent="lYyEjlizKKuH8gvevEbR-46" vertex="1">
          <mxGeometry y="78" width="160" height="72" as="geometry" />
        </mxCell>
        <mxCell id="lQa7ROMu-SQivL1V3Wxf-2" value="Venda" style="swimlane;fontStyle=1;align=center;verticalAlign=top;childLayout=stackLayout;horizontal=1;startSize=26;horizontalStack=0;resizeParent=1;resizeParentMax=0;resizeLast=0;collapsible=1;marginBottom=0;whiteSpace=wrap;html=1;" parent="1" vertex="1">
          <mxGeometry x="20" y="680" width="160" height="130" as="geometry" />
        </mxCell>
        <mxCell id="lQa7ROMu-SQivL1V3Wxf-3" value="- cliente: Cliente" style="text;strokeColor=none;fillColor=none;align=left;verticalAlign=top;spacingLeft=4;spacingRight=4;overflow=hidden;rotatable=0;points=[[0,0.5],[1,0.5]];portConstraint=eastwest;whiteSpace=wrap;html=1;" parent="lQa7ROMu-SQivL1V3Wxf-2" vertex="1">
          <mxGeometry y="26" width="160" height="24" as="geometry" />
        </mxCell>
        <mxCell id="lQa7ROMu-SQivL1V3Wxf-4" value="" style="line;strokeWidth=1;fillColor=none;align=left;verticalAlign=middle;spacingTop=-1;spacingLeft=3;spacingRight=3;rotatable=0;labelPosition=right;points=[];portConstraint=eastwest;strokeColor=inherit;" parent="lQa7ROMu-SQivL1V3Wxf-2" vertex="1">
          <mxGeometry y="50" width="160" height="8" as="geometry" />
        </mxCell>
        <mxCell id="lQa7ROMu-SQivL1V3Wxf-5" value="+ retorna_dados(): dict&lt;div&gt;+ registra_movimentacao(): bool&lt;/div&gt;&lt;div&gt;+ valor_venda(): float&lt;/div&gt;" style="text;strokeColor=none;fillColor=none;align=left;verticalAlign=top;spacingLeft=4;spacingRight=4;overflow=hidden;rotatable=0;points=[[0,0.5],[1,0.5]];portConstraint=eastwest;whiteSpace=wrap;html=1;" parent="lQa7ROMu-SQivL1V3Wxf-2" vertex="1">
          <mxGeometry y="58" width="160" height="72" as="geometry" />
        </mxCell>
        <mxCell id="lQa7ROMu-SQivL1V3Wxf-6" value="Compra" style="swimlane;fontStyle=1;align=center;verticalAlign=top;childLayout=stackLayout;horizontal=1;startSize=26;horizontalStack=0;resizeParent=1;resizeParentMax=0;resizeLast=0;collapsible=1;marginBottom=0;whiteSpace=wrap;html=1;" parent="1" vertex="1">
          <mxGeometry x="220" y="680" width="160" height="130" as="geometry" />
        </mxCell>
        <mxCell id="lQa7ROMu-SQivL1V3Wxf-7" value="&lt;div&gt;&lt;br&gt;&lt;/div&gt;" style="text;strokeColor=none;fillColor=none;align=left;verticalAlign=top;spacingLeft=4;spacingRight=4;overflow=hidden;rotatable=0;points=[[0,0.5],[1,0.5]];portConstraint=eastwest;whiteSpace=wrap;html=1;" parent="lQa7ROMu-SQivL1V3Wxf-6" vertex="1">
          <mxGeometry y="26" width="160" height="24" as="geometry" />
        </mxCell>
        <mxCell id="lQa7ROMu-SQivL1V3Wxf-8" value="" style="line;strokeWidth=1;fillColor=none;align=left;verticalAlign=middle;spacingTop=-1;spacingLeft=3;spacingRight=3;rotatable=0;labelPosition=right;points=[];portConstraint=eastwest;strokeColor=inherit;" parent="lQa7ROMu-SQivL1V3Wxf-6" vertex="1">
          <mxGeometry y="50" width="160" height="8" as="geometry" />
        </mxCell>
        <mxCell id="lQa7ROMu-SQivL1V3Wxf-9" value="+ retorna_dados(): dict&lt;div&gt;+ registra_movimentacao(): bool&lt;/div&gt;&lt;div&gt;+ valor_compra: float&lt;/div&gt;" style="text;strokeColor=none;fillColor=none;align=left;verticalAlign=top;spacingLeft=4;spacingRight=4;overflow=hidden;rotatable=0;points=[[0,0.5],[1,0.5]];portConstraint=eastwest;whiteSpace=wrap;html=1;" parent="lQa7ROMu-SQivL1V3Wxf-6" vertex="1">
          <mxGeometry y="58" width="160" height="72" as="geometry" />
        </mxCell>
        <mxCell id="lQa7ROMu-SQivL1V3Wxf-10" value="Realocação" style="swimlane;fontStyle=1;align=center;verticalAlign=top;childLayout=stackLayout;horizontal=1;startSize=26;horizontalStack=0;resizeParent=1;resizeParentMax=0;resizeLast=0;collapsible=1;marginBottom=0;whiteSpace=wrap;html=1;" parent="1" vertex="1">
          <mxGeometry x="420" y="680" width="160" height="110" as="geometry" />
        </mxCell>
        <mxCell id="lQa7ROMu-SQivL1V3Wxf-11" value="&lt;div&gt;&lt;br&gt;&lt;/div&gt;" style="text;strokeColor=none;fillColor=none;align=left;verticalAlign=top;spacingLeft=4;spacingRight=4;overflow=hidden;rotatable=0;points=[[0,0.5],[1,0.5]];portConstraint=eastwest;whiteSpace=wrap;html=1;" parent="lQa7ROMu-SQivL1V3Wxf-10" vertex="1">
          <mxGeometry y="26" width="160" height="24" as="geometry" />
        </mxCell>
        <mxCell id="lQa7ROMu-SQivL1V3Wxf-12" value="" style="line;strokeWidth=1;fillColor=none;align=left;verticalAlign=middle;spacingTop=-1;spacingLeft=3;spacingRight=3;rotatable=0;labelPosition=right;points=[];portConstraint=eastwest;strokeColor=inherit;" parent="lQa7ROMu-SQivL1V3Wxf-10" vertex="1">
          <mxGeometry y="50" width="160" height="8" as="geometry" />
        </mxCell>
        <mxCell id="lQa7ROMu-SQivL1V3Wxf-13" value="+ retorna_dados(): dict&lt;div&gt;+ registra_movimentacao(): bool&lt;/div&gt;" style="text;strokeColor=none;fillColor=none;align=left;verticalAlign=top;spacingLeft=4;spacingRight=4;overflow=hidden;rotatable=0;points=[[0,0.5],[1,0.5]];portConstraint=eastwest;whiteSpace=wrap;html=1;" parent="lQa7ROMu-SQivL1V3Wxf-10" vertex="1">
          <mxGeometry y="58" width="160" height="52" as="geometry" />
        </mxCell>
        <mxCell id="lQa7ROMu-SQivL1V3Wxf-15" value="" style="endArrow=none;html=1;edgeStyle=orthogonalEdgeStyle;rounded=0;startArrow=none;startFill=0;" parent="1" source="lYyEjlizKKuH8gvevEbR-38" target="lYyEjlizKKuH8gvevEbR-42" edge="1">
          <mxGeometry relative="1" as="geometry">
            <mxPoint x="440" y="990" as="sourcePoint" />
            <mxPoint x="600" y="990" as="targetPoint" />
            <Array as="points">
              <mxPoint x="880" y="640" />
              <mxPoint x="760" y="640" />
            </Array>
          </mxGeometry>
        </mxCell>
        <mxCell id="lQa7ROMu-SQivL1V3Wxf-16" value="1" style="edgeLabel;resizable=0;html=1;align=left;verticalAlign=bottom;" parent="lQa7ROMu-SQivL1V3Wxf-15" connectable="0" vertex="1">
          <mxGeometry x="-1" relative="1" as="geometry">
            <mxPoint x="1" as="offset" />
          </mxGeometry>
        </mxCell>
        <mxCell id="lQa7ROMu-SQivL1V3Wxf-17" value="*&amp;nbsp;" style="edgeLabel;resizable=0;html=1;align=right;verticalAlign=bottom;" parent="lQa7ROMu-SQivL1V3Wxf-15" connectable="0" vertex="1">
          <mxGeometry x="1" relative="1" as="geometry">
            <mxPoint as="offset" />
          </mxGeometry>
        </mxCell>
        <mxCell id="lQa7ROMu-SQivL1V3Wxf-24" value="Está" style="edgeLabel;html=1;align=center;verticalAlign=middle;resizable=0;points=[];" parent="lQa7ROMu-SQivL1V3Wxf-15" vertex="1" connectable="0">
          <mxGeometry x="0.1013" y="3" relative="1" as="geometry">
            <mxPoint as="offset" />
          </mxGeometry>
        </mxCell>
        <mxCell id="lQa7ROMu-SQivL1V3Wxf-18" value="" style="endArrow=none;html=1;edgeStyle=orthogonalEdgeStyle;rounded=0;startArrow=open;startFill=0;" parent="1" source="lYyEjlizKKuH8gvevEbR-46" target="lYyEjlizKKuH8gvevEbR-42" edge="1">
          <mxGeometry relative="1" as="geometry">
            <mxPoint x="650" y="560" as="sourcePoint" />
            <mxPoint x="810" y="560" as="targetPoint" />
            <Array as="points">
              <mxPoint x="640" y="520" />
            </Array>
          </mxGeometry>
        </mxCell>
        <mxCell id="lQa7ROMu-SQivL1V3Wxf-19" value="&amp;nbsp;+" style="edgeLabel;resizable=0;html=1;align=left;verticalAlign=bottom;" parent="lQa7ROMu-SQivL1V3Wxf-18" connectable="0" vertex="1">
          <mxGeometry x="-1" relative="1" as="geometry">
            <mxPoint x="7" as="offset" />
          </mxGeometry>
        </mxCell>
        <mxCell id="lQa7ROMu-SQivL1V3Wxf-20" value="1&amp;nbsp;" style="edgeLabel;resizable=0;html=1;align=right;verticalAlign=bottom;" parent="lQa7ROMu-SQivL1V3Wxf-18" connectable="0" vertex="1">
          <mxGeometry x="1" relative="1" as="geometry" />
        </mxCell>
        <mxCell id="lQa7ROMu-SQivL1V3Wxf-25" value="Faz" style="edgeLabel;html=1;align=center;verticalAlign=middle;resizable=0;points=[];" parent="lQa7ROMu-SQivL1V3Wxf-18" vertex="1" connectable="0">
          <mxGeometry x="0.0414" y="-2" relative="1" as="geometry">
            <mxPoint as="offset" />
          </mxGeometry>
        </mxCell>
        <mxCell id="lQa7ROMu-SQivL1V3Wxf-27" value="" style="endArrow=open;html=1;edgeStyle=orthogonalEdgeStyle;rounded=0;startArrow=none;startFill=0;endFill=0;" parent="1" source="lYyEjlizKKuH8gvevEbR-21" target="lYyEjlizKKuH8gvevEbR-46" edge="1">
          <mxGeometry relative="1" as="geometry">
            <mxPoint x="230" y="410" as="sourcePoint" />
            <mxPoint x="390" y="410" as="targetPoint" />
          </mxGeometry>
        </mxCell>
        <mxCell id="lQa7ROMu-SQivL1V3Wxf-28" value="1" style="edgeLabel;resizable=0;html=1;align=left;verticalAlign=bottom;" parent="lQa7ROMu-SQivL1V3Wxf-27" connectable="0" vertex="1">
          <mxGeometry x="-1" relative="1" as="geometry">
            <mxPoint x="2" y="20" as="offset" />
          </mxGeometry>
        </mxCell>
        <mxCell id="lQa7ROMu-SQivL1V3Wxf-29" value="*&amp;nbsp;" style="edgeLabel;resizable=0;html=1;align=right;verticalAlign=bottom;" parent="lQa7ROMu-SQivL1V3Wxf-27" connectable="0" vertex="1">
          <mxGeometry x="1" relative="1" as="geometry">
            <mxPoint x="-4" as="offset" />
          </mxGeometry>
        </mxCell>
        <mxCell id="lQa7ROMu-SQivL1V3Wxf-30" value="Faz" style="edgeLabel;html=1;align=center;verticalAlign=middle;resizable=0;points=[];" parent="lQa7ROMu-SQivL1V3Wxf-27" vertex="1" connectable="0">
          <mxGeometry x="0.0257" y="-2" relative="1" as="geometry">
            <mxPoint as="offset" />
          </mxGeometry>
        </mxCell>
        <mxCell id="lQa7ROMu-SQivL1V3Wxf-37" value="" style="endArrow=none;html=1;edgeStyle=orthogonalEdgeStyle;rounded=0;endFill=0;startFill=0;startArrow=open;" parent="1" source="lYyEjlizKKuH8gvevEbR-13" target="lYyEjlizKKuH8gvevEbR-21" edge="1">
          <mxGeometry relative="1" as="geometry">
            <mxPoint x="330" y="120" as="sourcePoint" />
            <mxPoint x="490" y="120" as="targetPoint" />
            <Array as="points">
              <mxPoint x="400" y="92" />
            </Array>
          </mxGeometry>
        </mxCell>
        <mxCell id="lQa7ROMu-SQivL1V3Wxf-40" value="É" style="edgeLabel;html=1;align=center;verticalAlign=middle;resizable=0;points=[];" parent="lQa7ROMu-SQivL1V3Wxf-37" vertex="1" connectable="0">
          <mxGeometry x="0.2995" y="-4" relative="1" as="geometry">
            <mxPoint as="offset" />
          </mxGeometry>
        </mxCell>
        <mxCell id="lQa7ROMu-SQivL1V3Wxf-41" value="" style="endArrow=open;html=1;edgeStyle=orthogonalEdgeStyle;rounded=0;endFill=0;" parent="1" source="lYyEjlizKKuH8gvevEbR-17" target="lYyEjlizKKuH8gvevEbR-13" edge="1">
          <mxGeometry relative="1" as="geometry">
            <mxPoint x="30" y="190" as="sourcePoint" />
            <mxPoint x="190" y="190" as="targetPoint" />
          </mxGeometry>
        </mxCell>
        <mxCell id="lQa7ROMu-SQivL1V3Wxf-45" value="É" style="edgeLabel;html=1;align=center;verticalAlign=middle;resizable=0;points=[];" parent="lQa7ROMu-SQivL1V3Wxf-41" vertex="1" connectable="0">
          <mxGeometry x="0.0421" relative="1" as="geometry">
            <mxPoint as="offset" />
          </mxGeometry>
        </mxCell>
        <mxCell id="lQa7ROMu-SQivL1V3Wxf-46" value="" style="endArrow=none;html=1;edgeStyle=orthogonalEdgeStyle;rounded=0;endFill=0;startFill=0;startArrow=open;" parent="1" source="lYyEjlizKKuH8gvevEbR-46" target="lQa7ROMu-SQivL1V3Wxf-10" edge="1">
          <mxGeometry relative="1" as="geometry">
            <mxPoint x="380" y="650" as="sourcePoint" />
            <mxPoint x="540" y="650" as="targetPoint" />
            <Array as="points">
              <mxPoint x="320" y="620" />
              <mxPoint x="480" y="620" />
            </Array>
          </mxGeometry>
        </mxCell>
        <mxCell id="lQa7ROMu-SQivL1V3Wxf-50" value="É" style="edgeLabel;html=1;align=center;verticalAlign=middle;resizable=0;points=[];" parent="lQa7ROMu-SQivL1V3Wxf-46" vertex="1" connectable="0">
          <mxGeometry x="-0.3587" relative="1" as="geometry">
            <mxPoint as="offset" />
          </mxGeometry>
        </mxCell>
        <mxCell id="lQa7ROMu-SQivL1V3Wxf-51" value="" style="endArrow=none;html=1;edgeStyle=orthogonalEdgeStyle;rounded=0;endFill=0;startFill=0;startArrow=open;" parent="1" source="lYyEjlizKKuH8gvevEbR-46" target="lQa7ROMu-SQivL1V3Wxf-6" edge="1">
          <mxGeometry relative="1" as="geometry">
            <mxPoint x="290" y="740" as="sourcePoint" />
            <mxPoint x="450" y="740" as="targetPoint" />
            <Array as="points">
              <mxPoint x="320" y="670" />
              <mxPoint x="320" y="670" />
            </Array>
          </mxGeometry>
        </mxCell>
        <mxCell id="lQa7ROMu-SQivL1V3Wxf-54" value="É" style="edgeLabel;html=1;align=center;verticalAlign=middle;resizable=0;points=[];" parent="lQa7ROMu-SQivL1V3Wxf-51" vertex="1" connectable="0">
          <mxGeometry x="-0.061" y="-1" relative="1" as="geometry">
            <mxPoint as="offset" />
          </mxGeometry>
        </mxCell>
        <mxCell id="lQa7ROMu-SQivL1V3Wxf-55" value="" style="endArrow=open;html=1;edgeStyle=orthogonalEdgeStyle;rounded=0;exitX=0.5;exitY=0;exitDx=0;exitDy=0;endFill=0;" parent="1" source="lQa7ROMu-SQivL1V3Wxf-2" target="lYyEjlizKKuH8gvevEbR-46" edge="1">
          <mxGeometry relative="1" as="geometry">
            <mxPoint x="200" y="580" as="sourcePoint" />
            <mxPoint x="360" y="580" as="targetPoint" />
            <Array as="points">
              <mxPoint x="120" y="680" />
              <mxPoint x="120" y="620" />
              <mxPoint x="320" y="620" />
            </Array>
          </mxGeometry>
        </mxCell>
        <mxCell id="lQa7ROMu-SQivL1V3Wxf-58" value="É" style="edgeLabel;html=1;align=center;verticalAlign=middle;resizable=0;points=[];" parent="lQa7ROMu-SQivL1V3Wxf-55" vertex="1" connectable="0">
          <mxGeometry x="0.2364" y="1" relative="1" as="geometry">
            <mxPoint as="offset" />
          </mxGeometry>
        </mxCell>
        <mxCell id="lQa7ROMu-SQivL1V3Wxf-59" value="" style="endArrow=open;html=1;edgeStyle=orthogonalEdgeStyle;rounded=0;endFill=0;" parent="1" source="lYyEjlizKKuH8gvevEbR-21" target="lYyEjlizKKuH8gvevEbR-42" edge="1">
          <mxGeometry relative="1" as="geometry">
            <mxPoint x="620" y="260" as="sourcePoint" />
            <mxPoint x="680" y="870" as="targetPoint" />
            <Array as="points">
              <mxPoint x="680" y="280" />
            </Array>
          </mxGeometry>
        </mxCell>
        <mxCell id="lQa7ROMu-SQivL1V3Wxf-74" value="Cadastra" style="edgeLabel;html=1;align=center;verticalAlign=middle;resizable=0;points=[];" parent="lQa7ROMu-SQivL1V3Wxf-59" vertex="1" connectable="0">
          <mxGeometry x="0.0555" relative="1" as="geometry">
            <mxPoint as="offset" />
          </mxGeometry>
        </mxCell>
        <mxCell id="lQa7ROMu-SQivL1V3Wxf-75" value="*" style="edgeLabel;html=1;align=center;verticalAlign=middle;resizable=0;points=[];" parent="lQa7ROMu-SQivL1V3Wxf-59" vertex="1" connectable="0">
          <mxGeometry x="0.9457" relative="1" as="geometry">
            <mxPoint x="11" y="5" as="offset" />
          </mxGeometry>
        </mxCell>
        <mxCell id="lQa7ROMu-SQivL1V3Wxf-76" value="&lt;div&gt;&lt;span style=&quot;background-color: light-dark(#ffffff, var(--ge-dark-color, #121212)); color: light-dark(rgb(0, 0, 0), rgb(255, 255, 255));&quot;&gt;1&lt;/span&gt;&lt;/div&gt;" style="edgeLabel;html=1;align=center;verticalAlign=middle;resizable=0;points=[];" parent="lQa7ROMu-SQivL1V3Wxf-59" vertex="1" connectable="0">
          <mxGeometry x="-0.9126" y="-3" relative="1" as="geometry">
            <mxPoint x="-16" y="-13" as="offset" />
          </mxGeometry>
        </mxCell>
        <mxCell id="lQa7ROMu-SQivL1V3Wxf-67" value="" style="endArrow=none;html=1;edgeStyle=orthogonalEdgeStyle;rounded=0;startArrow=open;startFill=0;" parent="1" source="lYyEjlizKKuH8gvevEbR-29" target="lYyEjlizKKuH8gvevEbR-21" edge="1">
          <mxGeometry relative="1" as="geometry">
            <mxPoint x="470" y="160" as="sourcePoint" />
            <mxPoint x="630" y="160" as="targetPoint" />
            <Array as="points">
              <mxPoint x="520" y="130" />
              <mxPoint x="520" y="130" />
            </Array>
          </mxGeometry>
        </mxCell>
        <mxCell id="lQa7ROMu-SQivL1V3Wxf-68" value="1" style="edgeLabel;resizable=0;html=1;align=left;verticalAlign=bottom;" parent="lQa7ROMu-SQivL1V3Wxf-67" connectable="0" vertex="1">
          <mxGeometry x="-1" relative="1" as="geometry">
            <mxPoint x="7" y="16" as="offset" />
          </mxGeometry>
        </mxCell>
        <mxCell id="lQa7ROMu-SQivL1V3Wxf-69" value="*" style="edgeLabel;resizable=0;html=1;align=right;verticalAlign=bottom;" parent="lQa7ROMu-SQivL1V3Wxf-67" connectable="0" vertex="1">
          <mxGeometry x="1" relative="1" as="geometry" />
        </mxCell>
        <mxCell id="lQa7ROMu-SQivL1V3Wxf-81" value="Tem" style="edgeLabel;html=1;align=center;verticalAlign=middle;resizable=0;points=[];" parent="lQa7ROMu-SQivL1V3Wxf-67" vertex="1" connectable="0">
          <mxGeometry x="-0.0915" relative="1" as="geometry">
            <mxPoint as="offset" />
          </mxGeometry>
        </mxCell>
        <mxCell id="lQa7ROMu-SQivL1V3Wxf-70" value="" style="endArrow=none;html=1;edgeStyle=orthogonalEdgeStyle;rounded=0;startArrow=open;startFill=0;" parent="1" source="lYyEjlizKKuH8gvevEbR-17" target="lYyEjlizKKuH8gvevEbR-21" edge="1">
          <mxGeometry relative="1" as="geometry">
            <mxPoint x="220" y="280" as="sourcePoint" />
            <mxPoint x="380" y="280" as="targetPoint" />
            <Array as="points">
              <mxPoint x="300" y="280" />
              <mxPoint x="300" y="280" />
            </Array>
          </mxGeometry>
        </mxCell>
        <mxCell id="lQa7ROMu-SQivL1V3Wxf-71" value="*" style="edgeLabel;resizable=0;html=1;align=left;verticalAlign=bottom;" parent="lQa7ROMu-SQivL1V3Wxf-70" connectable="0" vertex="1">
          <mxGeometry x="-1" relative="1" as="geometry">
            <mxPoint x="1" y="-3" as="offset" />
          </mxGeometry>
        </mxCell>
        <mxCell id="lQa7ROMu-SQivL1V3Wxf-72" value="1&amp;nbsp;" style="edgeLabel;resizable=0;html=1;align=right;verticalAlign=bottom;" parent="lQa7ROMu-SQivL1V3Wxf-70" connectable="0" vertex="1">
          <mxGeometry x="1" relative="1" as="geometry">
            <mxPoint y="17" as="offset" />
          </mxGeometry>
        </mxCell>
        <mxCell id="lQa7ROMu-SQivL1V3Wxf-73" value="Cadastra" style="edgeLabel;html=1;align=center;verticalAlign=middle;resizable=0;points=[];" parent="lQa7ROMu-SQivL1V3Wxf-70" vertex="1" connectable="0">
          <mxGeometry x="-0.0234" relative="1" as="geometry">
            <mxPoint as="offset" />
          </mxGeometry>
        </mxCell>
        <mxCell id="lQa7ROMu-SQivL1V3Wxf-77" value="" style="endArrow=open;html=1;edgeStyle=orthogonalEdgeStyle;rounded=0;endFill=0;" parent="1" source="lYyEjlizKKuH8gvevEbR-21" target="lYyEjlizKKuH8gvevEbR-38" edge="1">
          <mxGeometry relative="1" as="geometry">
            <mxPoint x="570" y="280" as="sourcePoint" />
            <mxPoint x="970" y="300" as="targetPoint" />
            <Array as="points">
              <mxPoint x="920" y="280" />
            </Array>
          </mxGeometry>
        </mxCell>
        <mxCell id="lQa7ROMu-SQivL1V3Wxf-79" value="*" style="edgeLabel;resizable=0;html=1;align=right;verticalAlign=bottom;" parent="lQa7ROMu-SQivL1V3Wxf-77" connectable="0" vertex="1">
          <mxGeometry x="1" relative="1" as="geometry">
            <mxPoint x="12" as="offset" />
          </mxGeometry>
        </mxCell>
        <mxCell id="lQa7ROMu-SQivL1V3Wxf-80" value="Cadastra" style="edgeLabel;html=1;align=center;verticalAlign=middle;resizable=0;points=[];" parent="lQa7ROMu-SQivL1V3Wxf-77" vertex="1" connectable="0">
          <mxGeometry x="0.3562" y="1" relative="1" as="geometry">
            <mxPoint as="offset" />
          </mxGeometry>
        </mxCell>
      </root>
    </mxGraphModel>
  </diagram>
</mxfile>
